# xmcd
# Track frame offsets:
# 150
# 18163
# 34589
# 50966
# 68583
# 85995
# 102884
# 121144
# 137803
#
# Disc length: 2019 seconds
# Revision: 0
# Processed by: cddbd v1.5.1PL0 Copyright (c) Steve Scherf et al.
# Submitted via: VisiTrax 2.9.10.228 - For more info visit www.synapsa.com
#
DISCID=7107e109
DTITLE=Various Artist - Hits Monthly Nashville  PHN0311
DYEAR=1900
DGENRE=Karaoke
TTITLE0=Keith, Toby - I Love This Bar
TTITLE1=Strait, George - Cowboys Like Us
TTITLE2=Worley, Darryl - Tennessee River Run
TTITLE3=Morgan, Craig - Every Friday Afternoon
TTITLE4=Gearing, Ashley - Can You Hear Me When I Talk To You
TTITLE5=McEntire, Reba - I'm Gonna Take That Mountain
TTITLE6=Wayne, Jimmy - I Love You This Much
TTITLE7=Hanson, Jennifer - Half A Heart Tattoo
TTITLE8=Clark, Terri - I Wanna Do It All
EXTD=
EXTT0=
EXTT1=
EXTT2=
EXTT3=
EXTT4=
EXTT5=
EXTT6=
EXTT7=
EXTT8=
PLAYORDER=
